<svg xmlns="http://www.w3.org/2000/svg" xmlns:xlink="http://www.w3.org/1999/xlink" xmlns:serif="http://www.serif.com/" viewBox="0 0 32 40" version="1.1" xml:space="preserve" style="" x="0px" y="0px" fill-rule="evenodd" clip-rule="evenodd" stroke-linejoin="round" stroke-miterlimit="2"><g><path d="M14.919,20.94c0.389,0.041 0.754,0.06 1.081,0.06c4.346,0 8.211,-1.485 10.6,-3.812c1.495,-1.457 2.4,-3.245 2.4,-5.188c0,-1.943 -0.905,-3.731 -2.4,-5.188c-2.389,-2.327 -6.254,-3.812 -10.6,-3.812c-4.346,0 -8.211,1.485 -10.6,3.812c-1.495,1.457 -2.4,3.245 -2.4,5.188c0,1.862 0.831,3.582 2.216,5.004c0.385,0.395 0.377,1.029 -0.018,1.414c-0.396,0.385 -1.029,0.377 -1.414,-0.019c-1.767,-1.813 -2.784,-4.024 -2.784,-6.399c0,-2.472 1.103,-4.767 3.005,-6.621c2.708,-2.638 7.069,-4.379 11.995,-4.379c4.926,0 9.287,1.741 11.995,4.379c1.902,1.854 3.005,4.149 3.005,6.621c0,2.472 -1.103,4.767 -3.005,6.621c-2.708,2.638 -7.069,4.379 -11.995,4.379c-0.676,0 -1.49,-0.072 -2.347,-0.229c-0.962,1.208 -2.265,2.541 -4.013,3.997c-0.424,0.354 -1.055,0.296 -1.408,-0.128c-0.354,-0.424 -0.296,-1.055 0.128,-1.408c1.312,-1.094 2.351,-2.099 3.165,-3.02c-0.957,-0.334 -1.873,-0.785 -2.62,-1.367c-1.496,-1.167 -2.38,-2.818 -1.881,-5.062c0.998,-4.493 7.615,-4.558 8.935,-0.065c0.323,1.097 0.345,2.848 -1.04,5.222Zm-2.088,-0.401c0.287,-0.427 0.521,-0.832 0.708,-1.215c0.658,-1.347 0.704,-2.353 0.502,-3.042c-0.749,-2.547 -4.499,-2.612 -5.065,-0.065c-0.386,1.739 0.643,2.864 1.996,3.589c0.578,0.31 1.216,0.551 1.859,0.733Z"/><path d="M2,31c0.601,0 1.587,-0.272 2.526,-0.723c0.939,-0.451 1.823,-1.076 2.274,-1.677c0.331,-0.442 0.242,-1.069 -0.2,-1.4c-0.442,-0.331 -1.069,-0.242 -1.4,0.2c-0.299,0.399 -0.915,0.774 -1.539,1.073c-0.623,0.3 -1.262,0.527 -1.661,0.527c-0.552,0 -1,0.448 -1,1c0,0.552 0.448,1 1,1Z"/></g><text x="0" y="47" fill="#000000" font-size="5px" font-weight="bold" font-family="'Helvetica Neue', Helvetica, Arial-Unicode, Arial, Sans-serif">Created by Muhamad Aldi Maulana</text><text x="0" y="52" fill="#000000" font-size="5px" font-weight="bold" font-family="'Helvetica Neue', Helvetica, Arial-Unicode, Arial, Sans-serif">from the Noun Project</text></svg>